<svg xmlns="http://www.w3.org/2000/svg" width="327.351" height="221.868" viewBox="0 0 327.351 221.868">
  <g id="Group_8" data-name="Group 8" transform="translate(-180.146 -265.305)">
    <g id="Group_6" data-name="Group 6">
      <g id="Group_1" data-name="Group 1">
        <path id="DP-M" d="M253.346,334.853l-19.18,53.64-19.69-53.64h-34.33v89.36h28.02v-44.56l16.18,44.56h19.06l16.26-44.56v44.56h27.89v-89.36Z" fill="#8367e3"/>
        <path id="DP-O" d="M389.726,309.983a43.7,43.7,0,0,0-16.6-16.34,48.505,48.505,0,0,0-46.26,0,43.937,43.937,0,0,0-16.72,16.34,48.1,48.1,0,0,0,0,47.21,44.383,44.383,0,0,0,16.72,16.4,47.886,47.886,0,0,0,46.2,0,44.012,44.012,0,0,0,16.66-16.4,48.583,48.583,0,0,0,0-47.21Zm-39.82,44.31a20.77,20.77,0,1,1,20.77-20.77A20.773,20.773,0,0,1,349.906,354.293Z" fill="#8367e3"/>
        <path id="DP-A" d="M358.046,397.823h-32.31l-32.69,89.35h29.41l3.536-10.825,31.546.018,3.538,10.807h29.53Zm-24.36,54.77,8.08-24.86,8.07,24.86Z" fill="#8367e3"/>
        <path id="DP-Z" d="M475.156,360.633h-66.89v22.22h35.34l-35.34,46.06v21.08h66.89v-22.34h-35.84l35.84-45.94Z" fill="#8367e3"/>
      </g>
      <g id="Group_4" data-name="Group 4">
        <path id="LP-M" d="M269.517,323.619l-19.18,53.64-19.69-53.64h-34.33v89.36h28.02v-44.56l16.18,44.56h19.06l16.26-44.56v44.56h27.89v-89.36Z" fill="#c1b3f1"/>
        <path id="LP-O" d="M405.9,298.749a43.694,43.694,0,0,0-16.6-16.34,48.505,48.505,0,0,0-46.26,0,43.938,43.938,0,0,0-16.72,16.34,48.1,48.1,0,0,0,0,47.21,44.384,44.384,0,0,0,16.72,16.4,47.886,47.886,0,0,0,46.2,0,44.013,44.013,0,0,0,16.66-16.4,48.583,48.583,0,0,0,0-47.21Z" fill="#c1b3f1"/>
        <path id="LP-A" d="M374.217,386.589h-32.31l-32.69,89.35h29.41l3.536-10.825,31.545.017,3.538,10.807h29.53Z" fill="#c1b3f1"/>
        <path id="LP-Z" d="M491.327,349.4h-66.89v22.22h35.34l-35.34,46.06v21.08h66.89v-22.34h-35.84l35.84-45.94Z" fill="#c1b3f1"/>
      </g>
      <g id="Group_5" data-name="Group 5">
        <path id="W-M" d="M285.687,312.385l-19.18,53.64-19.69-53.64h-34.33v89.36h28.02v-44.56l16.18,44.56h19.06l16.26-44.56v44.56H319.9v-89.36Z" fill="#fff"/>
        <path id="W-O" d="M422.067,287.515a43.694,43.694,0,0,0-16.6-16.34,48.505,48.505,0,0,0-46.26,0,43.937,43.937,0,0,0-16.72,16.34,48.1,48.1,0,0,0,0,47.21,44.384,44.384,0,0,0,16.72,16.4,47.886,47.886,0,0,0,46.2,0,44.013,44.013,0,0,0,16.66-16.4,48.582,48.582,0,0,0,0-47.21Zm-39.82,44.31a20.77,20.77,0,1,1,20.77-20.77A20.773,20.773,0,0,1,382.247,331.825Z" fill="#fff"/>
        <path id="W-A" d="M390.387,375.355h-32.31l-32.69,89.35H354.8l3.536-10.825,31.545.017,3.539,10.808h29.53Zm-24.36,54.77,8.08-24.86,8.07,24.86Z" fill="#fff"/>
        <path id="W-Z" d="M507.5,338.165h-66.89v22.22h35.34l-35.34,46.06v21.08H507.5v-22.34h-35.84l35.84-45.94Z" fill="#fff"/>
      </g>
    </g>
  </g>
</svg>
