<svg id="DevIllustration" xmlns="http://www.w3.org/2000/svg" xmlns:xlink="http://www.w3.org/1999/xlink" width="550.4" height="538.735" viewBox="0 0 550.4 538.735">
  <defs>
    <clipPath id="clip-path">
      <rect id="Rectangle_43" data-name="Rectangle 43" width="550.4" height="538.735" fill="none"/>
    </clipPath>
    <clipPath id="clip-path-3">
      <rect id="Rectangle_8" data-name="Rectangle 8" width="550.4" height="446.506" fill="#ac1313"/>
    </clipPath>
    <clipPath id="clip-path-6">
      <rect id="Rectangle_11" data-name="Rectangle 11" width="480.161" height="67.099" fill="#d0c6f4"/>
    </clipPath>
    <clipPath id="clip-path-8">
      <rect id="Rectangle_13" data-name="Rectangle 13" width="426.977" height="234.576" fill="none"/>
    </clipPath>
    <clipPath id="clip-path-10">
      <rect id="Rectangle_16" data-name="Rectangle 16" width="163.959" height="214.373" fill="none"/>
    </clipPath>
    <clipPath id="clip-path-12">
      <rect id="Rectangle_36" data-name="Rectangle 36" width="45.052" height="36.173" fill="none"/>
    </clipPath>
    <clipPath id="clip-path-13">
      <rect id="Rectangle_37" data-name="Rectangle 37" width="83.05" height="138.458" fill="none"/>
    </clipPath>
    <clipPath id="clip-path-14">
      <rect id="Rectangle_38" data-name="Rectangle 38" width="38.639" height="89.592" fill="none"/>
    </clipPath>
    <clipPath id="clip-path-15">
      <rect id="Rectangle_39" data-name="Rectangle 39" width="60.611" height="25.088" fill="none"/>
    </clipPath>
    <clipPath id="clip-path-16">
      <rect id="Rectangle_40" data-name="Rectangle 40" width="12.706" height="17.781" fill="none"/>
    </clipPath>
  </defs>
  <g id="Group_93" data-name="Group 93" clip-path="url(#clip-path)">
    <g id="Group_58" data-name="Group 58">
      <g id="Group_57" data-name="Group 57" clip-path="url(#clip-path)">
        <path id="Path_24" data-name="Path 24" d="M534.119,208.983c-61.1-104.638-226.828-67.37-260.68-118.27-17.333-26.061-36.724-56.27-64.848-71.98-26.813-14.976-57.9-20.32-85-18.336C26.8,7.481-14.234,94.076,4.365,189.168,29.175,316.018,141.623,445.591,275.21,446.5c69.867.475,136.571-24.5,188.895-59.806q.587-.4,1.171-.794c52.271-35.582,115.495-97.027,68.843-176.916" transform="translate(0 0)" fill="#fff"/>
        <g id="Group_56" data-name="Group 56" opacity="0.7">
          <g id="Group_55" data-name="Group 55">
            <g id="Group_54" data-name="Group 54" clip-path="url(#clip-path-3)">
              <path id="Path_25" data-name="Path 25" d="M534.119,208.983c-61.1-104.638-226.828-67.37-260.68-118.27-17.333-26.061-36.724-56.27-64.848-71.98-26.813-14.976-57.9-20.32-85-18.336C26.8,7.481-14.234,94.076,4.365,189.168,29.175,316.018,141.623,445.591,275.21,446.5c69.867.475,136.571-24.5,188.895-59.806q.587-.4,1.171-.794c52.271-35.582,115.495-97.027,68.843-176.916" transform="translate(0 0)" fill="#bdaef0"/>
            </g>
          </g>
        </g>
      </g>
    </g>
    <g id="Group_60" data-name="Group 60">
      <g id="Group_59" data-name="Group 59" clip-path="url(#clip-path)">
        <path id="Path_26" data-name="Path 26" d="M57.215,172.788H50.422a27.492,27.492,0,0,0-27.493,27.493V351.134a27.493,27.493,0,0,0,27.493,27.493h93.213a27.493,27.493,0,0,0,27.493-27.493" transform="translate(5.813 43.809)" fill="none" stroke="#370238" stroke-linecap="round" stroke-linejoin="round" stroke-width="1.103" stroke-dasharray="4.412 4.412"/>
        <path id="Path_27" data-name="Path 27" d="M135.055,68.669v-29.8a16.837,16.837,0,0,1,16.838-16.836H273.111a16.836,16.836,0,0,1,16.838,16.836" transform="translate(34.242 5.587)" fill="none" stroke="#370238" stroke-linecap="round" stroke-linejoin="round" stroke-width="1.103" stroke-dasharray="4.412 4.412"/>
      </g>
    </g>
    <g id="Group_65" data-name="Group 65">
      <g id="Group_64" data-name="Group 64" clip-path="url(#clip-path)">
        <path id="Path_28" data-name="Path 28" d="M510.73,409.793c0,18.529-107.487,33.55-240.081,33.55S30.57,428.321,30.57,409.793s107.487-33.55,240.079-33.55,240.081,15.021,240.081,33.55" transform="translate(7.751 95.393)" fill="#fff"/>
        <g id="Group_63" data-name="Group 63" transform="translate(38.32 471.636)" opacity="0.5">
          <g id="Group_62" data-name="Group 62">
            <g id="Group_61" data-name="Group 61" clip-path="url(#clip-path-6)">
              <path id="Path_29" data-name="Path 29" d="M510.73,409.793c0,18.529-107.487,33.55-240.081,33.55S30.57,428.321,30.57,409.793s107.487-33.55,240.079-33.55,240.081,15.021,240.081,33.55" transform="translate(-30.569 -376.244)" fill="#d0c6f4"/>
            </g>
          </g>
        </g>
      </g>
    </g>
    <g id="Group_70" data-name="Group 70">
      <g id="Group_69" data-name="Group 69" clip-path="url(#clip-path)">
        <path id="Path_30" data-name="Path 30" d="M494.179,96.763V322.475A27.825,27.825,0,0,1,466.358,350.3H69.373a27.825,27.825,0,0,1-27.822-27.822V96.763c0-.663.028-1.314.083-1.963a27.818,27.818,0,0,1,27.74-25.872H466.358A27.816,27.816,0,0,1,494.1,94.8c.055.649.083,1.3.083,1.963" transform="translate(10.535 17.476)" fill="#fff"/>
        <path id="Path_31" data-name="Path 31" d="M494.179,96.763V322.475A27.825,27.825,0,0,1,466.358,350.3H69.373a27.825,27.825,0,0,1-27.822-27.822V96.763c0-.663.028-1.314.083-1.963a27.818,27.818,0,0,1,27.74-25.872H466.358A27.816,27.816,0,0,1,494.1,94.8C494.152,95.449,494.179,96.1,494.179,96.763Z" transform="translate(10.535 17.476)" fill="none" stroke="#370238" stroke-linecap="round" stroke-linejoin="round" stroke-width="1.103"/>
        <path id="Path_32" data-name="Path 32" d="M453.247,332.461H78.425a26.074,26.074,0,0,1-26.074-26.074V97.885h426.97v208.5a26.074,26.074,0,0,1-26.074,26.074" transform="translate(13.273 24.818)" fill="#370238"/>
        <g id="Group_68" data-name="Group 68" transform="translate(65.624 122.702)" opacity="0.2">
          <g id="Group_67" data-name="Group 67">
            <g id="Group_66" data-name="Group 66" clip-path="url(#clip-path-8)">
              <path id="Path_33" data-name="Path 33" d="M479.328,97.884v208.51a25.931,25.931,0,0,1-25.784,26.066H78.135a25.932,25.932,0,0,1-25.784-26.066V97.884Z" transform="translate(-52.351 -97.884)" fill="#fff"/>
            </g>
          </g>
        </g>
        <path id="Path_34" data-name="Path 34" d="M494.08,94.8H41.618A27.817,27.817,0,0,1,69.356,68.927H466.341A27.817,27.817,0,0,1,494.08,94.8" transform="translate(10.552 17.476)" fill="#8266e1"/>
        <path id="Path_35" data-name="Path 35" d="M494.08,94.8H41.618A27.817,27.817,0,0,1,69.356,68.927H466.341A27.817,27.817,0,0,1,494.08,94.8Z" transform="translate(10.552 17.476)" fill="none" stroke="#370238" stroke-miterlimit="10" stroke-width="1.103"/>
        <path id="Path_36" data-name="Path 36" d="M87.966,80.244a4.928,4.928,0,1,1-4.928-4.928,4.928,4.928,0,0,1,4.928,4.928" transform="translate(19.804 19.096)" fill="#370238"/>
        <path id="Path_37" data-name="Path 37" d="M104.589,80.244a4.928,4.928,0,1,1-4.928-4.928,4.928,4.928,0,0,1,4.928,4.928" transform="translate(24.018 19.096)" fill="#370238"/>
        <path id="Path_38" data-name="Path 38" d="M121.211,80.244a4.928,4.928,0,1,1-4.928-4.928,4.928,4.928,0,0,1,4.928,4.928" transform="translate(28.233 19.096)" fill="#370238"/>
        <path id="Path_39" data-name="Path 39" d="M479.319,97.89v208.5a26.081,26.081,0,0,1-26.08,26.08H78.422a26.071,26.071,0,0,1-25.568-21.018l-.014-.014v-.055a25.876,25.876,0,0,1-.484-4.993V97.89Z" transform="translate(13.274 24.819)" fill="none" stroke="#370238" stroke-miterlimit="10" stroke-width="1.103"/>
        <path id="Path_40" data-name="Path 40" d="M402.64,126.217a26.5,26.5,0,0,0-5.794-2.392l-2.337-10.467h-9.956l-2.323,10.467a25.684,25.684,0,0,0-5.808,2.392l-8.989-5.751L360.4,127.5l5.655,8.989a25.577,25.577,0,0,0-2.392,5.808l-10.468,2.323v9.956l10.468,2.337a25.408,25.408,0,0,0,2.392,5.85l-5.752,9.043,7.039,7.039,9.044-5.753a25.725,25.725,0,0,0,5.808,2.406l2.323,10.455h9.956l2.337-10.455a26.544,26.544,0,0,0,5.794-2.406l.456.29V125.955Zm-13.081,36.3a12.86,12.86,0,1,1,12.86-12.86,12.853,12.853,0,0,1-12.86,12.86" transform="translate(89.548 28.741)" fill="#370238"/>
        <path id="Path_41" data-name="Path 41" d="M280.517,140.225V119.234l-22.07-4.9a57.043,57.043,0,0,0-5.047-12.252l2.669-4.2H151.9l2.572,4.093a54.326,54.326,0,0,0-5.034,12.237l-22.069,4.909v20.991l22.069,4.923a55.071,55.071,0,0,0,5.034,12.335L142.348,176.44,157.2,191.277l19.055-12.127a56.148,56.148,0,0,0,12.251,5.076l4.9,22.041h20.991l4.936-22.041a56.518,56.518,0,0,0,12.211-5.076l19.069,12.127,14.837-14.837L253.4,157.371a57.523,57.523,0,0,0,5.047-12.223Zm-76.469,16.621a27.117,27.117,0,1,1,27.117-27.117,27.117,27.117,0,0,1-27.117,27.117" transform="translate(32.294 24.818)" fill="#370238"/>
        <path id="Path_42" data-name="Path 42" d="M160.31,261.361l.885-16.648-17.256-4.867a46.739,46.739,0,0,0-3.54-9.9L150.824,215.3l-11.173-12.4-15.625,8.836a46.261,46.261,0,0,0-9.513-4.549l-2.987-17.7-16.65-.885-4.811,17.313a43.509,43.509,0,0,0-9.9,3.512L65.534,199,53.117,210.17l8.85,15.64a43.182,43.182,0,0,0-4.564,9.5l-5.047.83v22.552l3.664,1.038a43.618,43.618,0,0,0,3.54,9.928l-7.2,10.081.484,8.642v.055l.014.014,7.426,8.242,15.653-8.836a43.335,43.335,0,0,0,9.541,4.6l2.849,16.994v.015l.138.7,16.648.885.443-1.59v-.015l4.37-15.708a44.643,44.643,0,0,0,9.957-3.512l14.6,10.413L146.9,289.488l-8.822-15.654a43.122,43.122,0,0,0,4.508-9.486Zm-44.221-26.01a21.561,21.561,0,1,0-1.6,30.435,21.563,21.563,0,0,0,1.6-30.435" transform="translate(13.274 47.817)" fill="#370238"/>
        <path id="Path_43" data-name="Path 43" d="M260.636,237.752a33.907,33.907,0,0,0,1.01-7.885l11.969-6.294-3.307-12.143-13.511.632a33.6,33.6,0,0,0-4.854-6.273l4-12.924-10.91-6.25-9.127,9.959a35.417,35.417,0,0,0-7.86-1l-6.319-11.979-12.126,3.3.639,13.527a34.392,34.392,0,0,0-6.285,4.85l-12.929-3.991-6.258,10.893,10.012,9.1a32.835,32.835,0,0,0-.988,7.863l-11.991,6.314,3.307,12.144,13.528-.641a32.187,32.187,0,0,0,4.836,6.28L199.455,266.1l10.911,6.25,9.079-9.874a33.139,33.139,0,0,0,7.877.993l6.3,11.988,12.125-3.3-.532-11.556-.09-1.981a33.288,33.288,0,0,0,6.347-4.856l12.92,4.018,5.339-9.331.91-1.579Zm-28.672,7.377a16.243,16.243,0,1,1,11.4-19.941,16.243,16.243,0,0,1-11.4,19.941" transform="translate(46.095 46.549)" fill="#370238"/>
        <path id="Path_44" data-name="Path 44" d="M380,260.128l2.765-16.663-16.87-6.789a44.735,44.735,0,0,0-2.419-10.4l12.141-13.524-9.832-13.744-16.746,7.106A44.482,44.482,0,0,0,340,200.5l-.982-18.17-16.676-2.752-6.832,16.8a46.619,46.619,0,0,0-10.357,2.434l-13.566-12.141-13.73,9.832,7.121,16.731a45.546,45.546,0,0,0-5.076,7.882c-.193.387-.387.775-.567,1.162l-18.156,1.009-2.765,16.648,2.738,1.107,14.132,5.7A43.9,43.9,0,0,0,277.7,257.1L265.56,270.664l9.832,13.731,16.746-7.135a43.442,43.442,0,0,0,9.029,5.656l.94,18.087,16.662,2.752,6.818-16.677a43.865,43.865,0,0,0,10.384-2.433L349.51,296.8l13.744-9.845-7.121-16.746a43.648,43.648,0,0,0,5.711-9.084Zm-46.752-.747a21.823,21.823,0,1,1,5.033-30.449,21.824,21.824,0,0,1-5.033,30.449" transform="translate(65.518 45.531)" fill="#370238"/>
      </g>
    </g>
    <g id="Group_75" data-name="Group 75">
      <g id="Group_74" data-name="Group 74" clip-path="url(#clip-path)">
        <path id="Path_45" data-name="Path 45" d="M205.005,359.752H73.914A16.435,16.435,0,0,1,57.48,343.318V161.813a16.435,16.435,0,0,1,16.434-16.434H205.005a16.435,16.435,0,0,1,16.434,16.434V343.318a16.435,16.435,0,0,1-16.434,16.434" transform="translate(14.574 36.859)" fill="#8266e1"/>
        <rect id="Rectangle_15" data-name="Rectangle 15" width="163.959" height="214.373" rx="13.11" transform="translate(72.054 182.238)" fill="none" stroke="#370238" stroke-miterlimit="10" stroke-width="1.103"/>
        <g id="Group_73" data-name="Group 73" transform="translate(72.054 182.238)" opacity="0.2">
          <g id="Group_72" data-name="Group 72">
            <g id="Group_71" data-name="Group 71" clip-path="url(#clip-path-10)">
              <path id="Path_46" data-name="Path 46" d="M205.005,359.752H73.914A16.435,16.435,0,0,1,57.48,343.318V161.813a16.435,16.435,0,0,1,16.434-16.434H205.005a16.435,16.435,0,0,1,16.434,16.434V343.318a16.435,16.435,0,0,1-16.434,16.434" transform="translate(-57.48 -145.379)"/>
            </g>
          </g>
        </g>
        <path id="Path_47" data-name="Path 47" d="M233.615,174.728V356.233a16.435,16.435,0,0,1-16.441,16.441H86.086a16.433,16.433,0,0,1-16.428-16.441V174.728A16.43,16.43,0,0,1,86.086,158.3H217.173a16.433,16.433,0,0,1,16.441,16.428" transform="translate(17.661 40.135)" fill="#fff"/>
        <path id="Path_48" data-name="Path 48" d="M233.615,174.728V356.233a16.435,16.435,0,0,1-16.441,16.441H86.086a16.433,16.433,0,0,1-16.428-16.441V174.728A16.43,16.43,0,0,1,86.086,158.3H217.173A16.433,16.433,0,0,1,233.615,174.728Z" transform="translate(17.661 40.135)" fill="none" stroke="#370238" stroke-linecap="round" stroke-linejoin="round" stroke-width="1.103"/>
        <path id="Path_49" data-name="Path 49" d="M233.615,174.728v9.721H69.658v-9.721A16.43,16.43,0,0,1,86.086,158.3H217.173a16.433,16.433,0,0,1,16.441,16.428" transform="translate(17.661 40.135)" fill="#8266e1"/>
        <path id="Path_50" data-name="Path 50" d="M233.615,174.728v9.721H69.658v-9.721A16.43,16.43,0,0,1,86.086,158.3H217.173A16.433,16.433,0,0,1,233.615,174.728Z" transform="translate(17.661 40.135)" fill="none" stroke="#370238" stroke-miterlimit="10" stroke-width="1.103"/>
        <rect id="Rectangle_17" data-name="Rectangle 17" width="40.336" height="6.765" transform="translate(102.738 235.844)" fill="#8266e1"/>
        <rect id="Rectangle_18" data-name="Rectangle 18" width="40.336" height="6.765" transform="translate(102.738 296.501)" fill="#8266e1"/>
        <rect id="Rectangle_19" data-name="Rectangle 19" width="40.336" height="6.765" transform="translate(102.738 351.507)" fill="#8266e1"/>
        <rect id="Rectangle_20" data-name="Rectangle 20" width="114.564" height="4.963" transform="translate(102.738 252.593)" fill="#370238"/>
        <rect id="Rectangle_21" data-name="Rectangle 21" width="93.905" height="4.835" transform="translate(102.738 262.093)" fill="#370238"/>
        <rect id="Rectangle_22" data-name="Rectangle 22" width="106.202" height="4.836" transform="translate(102.738 271.429)" fill="#370238"/>
        <rect id="Rectangle_23" data-name="Rectangle 23" width="106.202" height="4.835" transform="translate(102.738 280.759)" fill="#370238"/>
        <rect id="Rectangle_24" data-name="Rectangle 24" width="114.564" height="4.963" transform="translate(102.738 307.599)" fill="#370238"/>
        <rect id="Rectangle_25" data-name="Rectangle 25" width="93.905" height="4.835" transform="translate(102.738 317.098)" fill="#370238"/>
        <rect id="Rectangle_26" data-name="Rectangle 26" width="106.202" height="4.836" transform="translate(102.738 326.434)" fill="#370238"/>
        <rect id="Rectangle_27" data-name="Rectangle 27" width="114.564" height="4.963" transform="translate(102.738 368.003)" fill="#370238"/>
        <rect id="Rectangle_28" data-name="Rectangle 28" width="93.905" height="4.836" transform="translate(102.738 377.501)" fill="#370238"/>
        <rect id="Rectangle_29" data-name="Rectangle 29" width="106.202" height="4.836" transform="translate(102.738 386.838)" fill="#370238"/>
        <path id="Path_51" data-name="Path 51" d="M389.957,61.869v73.357a19.587,19.587,0,0,1-19.594,19.594H201.4a19.6,19.6,0,0,1-19.594-19.594V61.869A19.608,19.608,0,0,1,201.4,42.261H370.363a19.6,19.6,0,0,1,19.594,19.608" transform="translate(46.095 10.715)" fill="#fff"/>
        <path id="Path_52" data-name="Path 52" d="M389.957,61.869v73.357a19.587,19.587,0,0,1-19.594,19.594H201.4a19.6,19.6,0,0,1-19.594-19.594V61.869A19.608,19.608,0,0,1,201.4,42.261H370.363A19.6,19.6,0,0,1,389.957,61.869Z" transform="translate(46.095 10.715)" fill="none" stroke="#0b2022" stroke-miterlimit="10" stroke-width="1.103"/>
        <path id="Path_53" data-name="Path 53" d="M389.957,61.869v1.673H181.805V61.869A19.608,19.608,0,0,1,201.4,42.261H370.363a19.6,19.6,0,0,1,19.594,19.608" transform="translate(46.095 10.715)" fill="#8266e1"/>
        <path id="Path_54" data-name="Path 54" d="M389.957,61.869v1.673H181.805V61.869A19.608,19.608,0,0,1,201.4,42.261H370.363A19.6,19.6,0,0,1,389.957,61.869Z" transform="translate(46.095 10.715)" fill="none" stroke="#370238" stroke-miterlimit="10" stroke-width="1.103"/>
        <path id="Path_55" data-name="Path 55" d="M207.236,54.581a3,3,0,1,1,0-4.244,3,3,0,0,1,0,4.244" transform="translate(51.244 12.54)" fill="#370238"/>
        <path id="Path_56" data-name="Path 56" d="M218.356,54.581a3,3,0,1,1,0-4.244,3,3,0,0,1,0,4.244" transform="translate(54.063 12.54)" fill="#370238"/>
        <path id="Path_57" data-name="Path 57" d="M229.476,54.581a3,3,0,1,1,0-4.244,3,3,0,0,1,0,4.244" transform="translate(56.882 12.54)" fill="#370238"/>
        <rect id="Rectangle_30" data-name="Rectangle 30" width="68.04" height="58.814" transform="translate(241.174 87.747)" fill="none" stroke="#370238" stroke-linecap="round" stroke-linejoin="round" stroke-width="1.103" stroke-dasharray="4.412 4.412"/>
        <rect id="Rectangle_31" data-name="Rectangle 31" width="78.305" height="4.13" transform="translate(319.712 87.745)" fill="#370238"/>
        <rect id="Rectangle_32" data-name="Rectangle 32" width="60.065" height="4.13" transform="translate(319.712 96.311)" fill="#370238"/>
        <rect id="Rectangle_33" data-name="Rectangle 33" width="89.444" height="4.179" transform="translate(319.71 104.829)" fill="#370238"/>
        <rect id="Rectangle_34" data-name="Rectangle 34" width="76.163" height="4.179" transform="translate(319.712 113.148)" fill="#370238"/>
      </g>
    </g>
    <g id="Group_92" data-name="Group 92">
      <g id="Group_91" data-name="Group 91" clip-path="url(#clip-path)">
        <path id="Path_58" data-name="Path 58" d="M286.322,400.932s-36.354,10.426-41.428,12.223c-4.619,1.632-17.133,6.016-26.522,4.661a20.53,20.53,0,0,1-2.683-.58c-9.513-2.836-13.786-5.477-15.031-11.464-1.257-6,3.485-10.384,8.049-13.206s29.314-5.766,29.314-5.766l5.974,1.756h.014Z" transform="translate(50.823 98.069)" fill="#8266e1"/>
        <path id="Path_59" data-name="Path 59" d="M218.372,417.816a20.529,20.529,0,0,1-2.683-.58c-9.513-2.836-13.786-5.477-15.031-11.464s3.485-10.384,8.048-13.206,29.315-5.766,29.315-5.766L244,388.556c-5.408,2.49-25.568,3.872-29.966,6.4s-6.526,7.3-3.926,13.744c1.383,3.43,5.088,6.749,8.268,9.113" transform="translate(50.823 98.069)" fill="#fff"/>
        <path id="Path_60" data-name="Path 60" d="M280.812,402.113s-27.3,7.074-38.128,11.6-31.481,6.508-38.838-2.829-.849-17.372,6.508-19.155,22.234-4.614,30.358-3.482" transform="translate(50.864 98.371)" fill="none" stroke="#370238" stroke-linecap="round" stroke-linejoin="round" stroke-width="1.103"/>
        <path id="Path_61" data-name="Path 61" d="M217.252,416.965s-13.892-7.616-9.279-18.293c3.4-7.879,21.936-6.17,31.113-10.477" transform="translate(52.492 98.423)" fill="none" stroke="#370238" stroke-linecap="round" stroke-linejoin="round" stroke-width="1.103"/>
        <path id="Path_62" data-name="Path 62" d="M372.607,419.646c-.374,3.719-1.687,7.287-5.448,9.5-2.5,1.48-6.071,2.364-11.173,2.309-12.75-.165-36.714-9.277-36.714-9.277l-22.442-12.4L308.5,391.3l3.194-5.06,8.256,1.853s6.831,3.872,13.7,6.956,23.548,3.733,29.426,8.49,10.162,9.914,9.527,16.109" transform="translate(75.258 97.927)" fill="#8266e1"/>
        <path id="Path_63" data-name="Path 63" d="M370.246,419.646c-.374,3.719-1.687,7.287-5.448,9.5a16.806,16.806,0,0,0-.637-11.2c-2.488-5.628-10.661-10.592-21.392-11.422s-18.943-5.849-23.244-8.089c-3.359-1.742-10.439-5.544-13.385-7.135l3.194-5.06,8.256,1.853s6.831,3.872,13.7,6.956,23.548,3.733,29.426,8.49,10.162,9.914,9.527,16.109" transform="translate(77.619 97.927)" fill="#fff"/>
        <path id="Path_64" data-name="Path 64" d="M301.267,411.741c15.976,9.152,34.249,15.742,52.528,17.944,4.082.491,8.832.559,11.568-2.51a8.552,8.552,0,0,0,1.884-6.412c-.5-5.761-5.339-10.329-10.651-12.613s-11.179-2.828-16.821-4.093A66.5,66.5,0,0,1,323.6,398.14c-4.056-2.116-7.983-4.687-12.459-5.635s-9.808.2-12.194,4.105" transform="translate(75.794 99.436)" fill="none" stroke="#370238" stroke-linecap="round" stroke-linejoin="round" stroke-width="1.103"/>
        <path id="Path_65" data-name="Path 65" d="M361.53,429.874c4.13-2.12,7.521-6.013,8.209-10.6.814-5.432-2.279-10.89-6.636-14.23s-9.8-4.909-15.179-6.027-10.875-1.868-15.99-3.866c-7.863-3.072-15.619-9.142-23.78-6.976" transform="translate(78.13 98.301)" fill="none" stroke="#370238" stroke-linecap="round" stroke-linejoin="round" stroke-width="1.103"/>
        <path id="Path_66" data-name="Path 66" d="M348.48,259.07l-37.971-14.45-.47-.18s.138-1.009.248-2.474c.236-3.029.36-7.965-1.064-9.639-2.116-2.476-8.117-.4-13.967-3.084s-16.676,2.116-16.676,2.116-7.813-1.438-11.256,4.2c-1.756,4.549-1.148,11.326-1.148,11.326s-.248.1-.718.262c-4.523,1.687-29.136,10.952-34.349,14.671-5.753,4.08-12.113,45.908-14.159,58.188s-5.684,23.355-3.831,27.587c1.839,4.217,28.292,24.586,43.5,29.841s69.18,3.719,69.18,3.719.885-.234,2.448-.732c9.126-2.932,41.511-15,58.685-43.475,0,0-16.634-54.565-38.455-77.879M245.892,329.426c-2.794,1.978-1.3,9.652-1.3,9.652l-4.757-4.191,11.934-29.343,5.088,22.526s-8.172-.608-10.965,1.355m95.467,18.64c-1.314.677,3.776-13.427,1.355-16.621-2.419-3.209-9.666-2.891-9.666-2.891l.623-3.858c.083-.427,4.3-22.055,4.3-22.055l1.425-1.7s14.768,25.319,17.409,34.238c0,0-16.1,12.888-15.446,12.888" transform="translate(53.905 57.916)" fill="#8266e1"/>
        <path id="Path_67" data-name="Path 67" d="M268.15,179.863l-19.6,20.808s-2.7,2.388-1.63,8.424,3.575,11.222,5.465,11.624a27.006,27.006,0,0,0,4.538.406s4.2,9.1,7.174,12.678c0,0,1.037,14.047.484,17.948,0,0,7.041,6.15,13.672,6.932s16.879-9.379,16.879-9.379l2.54-12.439s6.012-9.126,6.422-11.556,3.159-1.806,4.509-3,4.476-6.559,4.993-11.623.553-10.882-5.33-9.173c-5.1-1.37-1.908-12.147-1.908-12.147l-8.957-7.9Z" transform="translate(62.541 45.603)" fill="#fff"/>
        <g id="Group_78" data-name="Group 78" transform="translate(319.362 286.344)" opacity="0.5">
          <g id="Group_77" data-name="Group 77">
            <g id="Group_76" data-name="Group 76" clip-path="url(#clip-path-12)">
              <path id="Path_68" data-name="Path 68" d="M299.82,244.62a20.01,20.01,0,0,1-1.009,2.268c-3.235,6.1-17.326,17.714-17.326,17.714l-4.259-13.1-2.337,13.1c-4.7-2.047-19.041-14.478-19.041-14.478s-.484-1.161-1.078-2.972c.47-.167.718-.263.718-.263s-.608-6.775,1.148-11.325c3.443-5.642,11.256-4.2,11.256-4.2s10.828-4.8,16.677-2.116,11.85.609,13.966,3.084.816,12.114.816,12.114Z" transform="translate(-254.768 -228.428)" fill="#fff"/>
            </g>
          </g>
        </g>
        <g id="Group_81" data-name="Group 81" transform="translate(357.791 299.881)" opacity="0.2">
          <g id="Group_80" data-name="Group 80">
            <g id="Group_79" data-name="Group 79" clip-path="url(#clip-path-13)">
              <path id="Path_69" data-name="Path 69" d="M330.019,256.332l-37.971-14.45-.47-.18s.138-1.009.248-2.474l-.788,4.923-5.613,7.633a153.726,153.726,0,0,1,17.521,7.722,15.393,15.393,0,0,1,8.05,15.35l-7,59.854L301.132,368.7l8.657,8.989c9.126-2.932,41.511-15,58.684-43.475,0,0-16.634-54.565-38.455-77.879m-7.121,89c-1.314.677,3.776-13.427,1.355-16.621-2.419-3.209-9.666-2.891-9.666-2.891l.623-3.858c.083-.427,4.3-22.055,4.3-22.055l1.425-1.7s14.768,25.319,17.409,34.238c0,0-16.1,12.888-15.446,12.888" transform="translate(-285.424 -239.227)"/>
            </g>
          </g>
        </g>
        <g id="Group_84" data-name="Group 84" transform="translate(274.695 324.617)" opacity="0.2">
          <g id="Group_83" data-name="Group 83">
            <g id="Group_82" data-name="Group 82" clip-path="url(#clip-path-14)">
              <path id="Path_70" data-name="Path 70" d="M257.773,323.7l-5.9-19.732s-10.586-36.107-17.845-45.012l1.908,25.393s-6.229,30.336-12,39.351-7.01,11.256,0,11.256c7.025,0,24.062,13.593,24.062,13.593l-1.314-11.34Zm-14.837,7.633-4.757-4.191L250.113,297.8,255.2,320.33s-8.173-.608-10.966,1.355c-2.793,1.978-1.3,9.652-1.3,9.652" transform="translate(-219.135 -258.96)"/>
            </g>
          </g>
        </g>
        <path id="Path_71" data-name="Path 71" d="M260.576,222.892s1.089,10.64,0,15.5" transform="translate(66.067 56.512)" fill="none" stroke="#370238" stroke-linecap="round" stroke-linejoin="round" stroke-width="1.103"/>
        <path id="Path_72" data-name="Path 72" d="M286.2,236.177a45.622,45.622,0,0,1,1.185-10.165" transform="translate(72.563 57.303)" fill="none" stroke="#370238" stroke-linecap="round" stroke-linejoin="round" stroke-width="1.103"/>
        <path id="Path_73" data-name="Path 73" d="M297.21,186.191s6.437,8.088,6.107,14.2-.825,13.37-.661,20.468-11.388,21.953-17.331,23.273-11.059,1.651-14.856-2.146-7.593-9.078-12.544-15.846-3.8-21.622-3.8-21.622" transform="translate(64.402 47.207)" fill="none" stroke="#370238" stroke-linecap="round" stroke-linejoin="round" stroke-width="1.103"/>
        <path id="Path_74" data-name="Path 74" d="M276.236,205.323a33.425,33.425,0,0,0-.5,6.728c.049,1.885.33,3.924,1.651,5.27.711.726,1.745,1.306,1.88,2.313a2.449,2.449,0,0,1-1.322,2.191,18.743,18.743,0,0,0-2.322,1.378" transform="translate(69.881 52.058)" fill="none" stroke="#370238" stroke-linecap="round" stroke-linejoin="round" stroke-width="1.103"/>
        <path id="Path_75" data-name="Path 75" d="M267.957,220.212s.745,4.8,7.178,5.8" transform="translate(67.938 55.833)" fill="none" stroke="#370238" stroke-linecap="round" stroke-linejoin="round" stroke-width="1.103"/>
        <path id="Path_76" data-name="Path 76" d="M269.033,208.749c0,1.386-.6,2.511-1.339,2.511s-1.339-1.124-1.339-2.511.6-2.511,1.339-2.511,1.339,1.124,1.339,2.511" transform="translate(67.532 52.29)" fill="#370238"/>
        <path id="Path_77" data-name="Path 77" d="M284.343,209.23c0,1.386-.6,2.511-1.34,2.511s-1.339-1.124-1.339-2.511.6-2.511,1.339-2.511,1.34,1.124,1.34,2.511" transform="translate(71.413 52.412)" fill="#370238"/>
        <path id="Path_78" data-name="Path 78" d="M280.712,204.393s6.24-6.24,11.52.72" transform="translate(71.172 51.17)" fill="none" stroke="#370238" stroke-linecap="round" stroke-linejoin="round" stroke-width="2.206"/>
        <path id="Path_79" data-name="Path 79" d="M272.245,204.368s-3.96-4.44-10.2,0" transform="translate(66.439 51.315)" fill="none" stroke="#370238" stroke-linecap="round" stroke-linejoin="round" stroke-width="2.206"/>
        <path id="Path_80" data-name="Path 80" d="M261.06,228.74s3.822,10.535,12.357,13.523,19.87-12.519,19.87-12.519l-.593-2.016s-7.426,9.649-15.688,8-16.43-12.837-16.43-12.837Z" transform="translate(66.067 56.512)" fill="#370238"/>
        <path id="Path_81" data-name="Path 81" d="M256.876,216.685s-5.088,1.8-6.442-2.169-5.991-14.4-1.932-17.879,7.319,4.593,7.319,4.593" transform="translate(62.592 49.635)" fill="none" stroke="#370238" stroke-linecap="round" stroke-linejoin="round" stroke-width="1.103"/>
        <path id="Path_82" data-name="Path 82" d="M292.811,218.581s4.73.951,6.082-3.014,5.991-14.4,1.933-17.88-7.321,4.593-7.321,4.593" transform="translate(74.239 49.901)" fill="none" stroke="#370238" stroke-linecap="round" stroke-linejoin="round" stroke-width="1.103"/>
        <path id="Path_83" data-name="Path 83" d="M256.944,219.078a7.05,7.05,0,0,0,4.465-2.639,11.1,11.1,0,0,0,1.3-4,48.2,48.2,0,0,0,.707-8.065,10.856,10.856,0,0,1,.285-3.144,8.056,8.056,0,0,1,1.7-2.8c1.775-2.081,3.914-3.84,5.6-5.992s2.929-4.878,2.473-7.575c0,0,11.539,10.547,28.171,7.286,8.955-1.756,17.549-9.615,16.5-19.491a7.991,7.991,0,0,0-6.31-6.876c-4.426-1.1-8.4,1.259-12.414,2.77-7.312,2.758-14.466-1.977-21.853-2.772-6.317-.679-14.071.1-17.361,6.386,0,0-11.347,1.333-16.317,10.653s4.478,22.223,4.478,22.223,3.8-4.6,8.69,4.716Z" transform="translate(61.47 41.961)" fill="#370238"/>
        <path id="Path_84" data-name="Path 84" d="M289.155,185.09s-2.935,15.292,4.723,22.7c0,0,1.675-4.6,3.374-5.717a17.731,17.731,0,0,0-1.341-16.978c-5.6-8.9-6.757,0-6.757,0" transform="translate(73.172 45.925)" fill="#370238"/>
        <g id="Group_87" data-name="Group 87" transform="translate(316.434 212.921)" opacity="0.2">
          <g id="Group_86" data-name="Group 86">
            <g id="Group_85" data-name="Group 85" clip-path="url(#clip-path-15)">
              <path id="Path_85" data-name="Path 85" d="M312.213,170.407c-1.133,4.214-4.7,7.475-8.738,9.121-10.629,4.33-20.953-.473-31.6-1.413-8.7-.768-18.287,7.069-18.895,16" transform="translate(-252.292 -169.716)" fill="none" stroke="#fff" stroke-linecap="round" stroke-linejoin="round" stroke-width="1.103"/>
            </g>
          </g>
        </g>
        <g id="Group_90" data-name="Group 90" transform="translate(309.831 217.873)" opacity="0.2">
          <g id="Group_89" data-name="Group 89">
            <g id="Group_88" data-name="Group 88" clip-path="url(#clip-path-16)">
              <path id="Path_86" data-name="Path 86" d="M247.717,190.757a18.585,18.585,0,0,1,11.322-16.4" transform="translate(-247.025 -173.666)" fill="none" stroke="#fff" stroke-linecap="round" stroke-linejoin="round" stroke-width="1.103"/>
            </g>
          </g>
        </g>
        <path id="Path_87" data-name="Path 87" d="M258.621,234.371s7,7.717,16.553,11.324c0,0,12.726-3.689,19.2-12.562" transform="translate(65.571 59.109)" fill="none" stroke="#370238" stroke-linecap="round" stroke-linejoin="round" stroke-width="1.103"/>
        <circle id="Ellipse_4" data-name="Ellipse 4" cx="11.261" cy="11.261" r="11.261" transform="translate(321.226 249.778)" fill="none" stroke="#370238" stroke-linecap="round" stroke-linejoin="round" stroke-width="1.103"/>
        <circle id="Ellipse_5" data-name="Ellipse 5" cx="11.261" cy="11.261" r="11.261" transform="translate(346.383 249.778)" fill="none" stroke="#370238" stroke-linecap="round" stroke-linejoin="round" stroke-width="1.103"/>
        <path id="Path_88" data-name="Path 88" d="M261.9,230.771a8.828,8.828,0,0,0-5.417,4.2c-1.993,3.507-.791,14.554-.791,14.554S265.986,259.705,274.746,264l2.585-14.532L281.342,264s13.567-9.595,17.324-17.7c0,0,1.225-9.457,0-12.563a4.333,4.333,0,0,0-4.05-2.962" transform="translate(64.738 58.51)" fill="none" stroke="#370238" stroke-linecap="round" stroke-linejoin="round" stroke-width="1.103"/>
        <path id="Path_89" data-name="Path 89" d="M249.612,315.979s-4.016-26.945-9.369-37.938" transform="translate(60.911 70.495)" fill="none" stroke="#370238" stroke-linecap="round" stroke-linejoin="round" stroke-width="1.103"/>
        <path id="Path_90" data-name="Path 90" d="M231.012,258.96a109.183,109.183,0,0,1,8.322,13.928" transform="translate(58.571 65.657)" fill="none" stroke="#370238" stroke-linecap="round" stroke-linejoin="round" stroke-width="1.103"/>
        <path id="Path_91" data-name="Path 91" d="M315.319,277.667a77.869,77.869,0,0,1,4.422-13.152" transform="translate(79.946 67.065)" fill="none" stroke="#370238" stroke-linecap="round" stroke-linejoin="round" stroke-width="1.103"/>
        <path id="Path_92" data-name="Path 92" d="M308.687,315.121s2.9-18.472,6.354-33.7" transform="translate(78.265 71.353)" fill="none" stroke="#370238" stroke-linecap="round" stroke-linejoin="round" stroke-width="1.103"/>
        <path id="Path_93" data-name="Path 93" d="M312.612,289.176a21.248,21.248,0,0,1,11.209-7.665" transform="translate(79.26 71.374)" fill="none" stroke="#370238" stroke-linecap="round" stroke-linejoin="round" stroke-width="1.103"/>
        <path id="Path_94" data-name="Path 94" d="M290.336,241.2s23.365,9.333,38.444,14.633c0,0,18.551,17.448,38.442,77.879,0,0-18.233,30.662-52.9,40.492" transform="translate(73.612 61.154)" fill="none" stroke="#370238" stroke-linecap="round" stroke-linejoin="round" stroke-width="1.103"/>
        <path id="Path_95" data-name="Path 95" d="M314.275,328.328l16.75-13.986s8.861-6.734,18.077-2.127" transform="translate(79.681 78.751)" fill="none" stroke="#370238" stroke-linecap="round" stroke-linejoin="round" stroke-width="1.103"/>
        <path id="Path_96" data-name="Path 96" d="M313.756,286.277s13.857,20.41,17.4,34.233" transform="translate(79.55 72.583)" fill="none" stroke="#370238" stroke-linecap="round" stroke-linejoin="round" stroke-width="1.103"/>
        <path id="Path_97" data-name="Path 97" d="M242.373,318.286l-4.9-4.674s-7.277-1.271-15.516,4.252" transform="translate(56.274 79.481)" fill="none" stroke="#370238" stroke-linecap="round" stroke-linejoin="round" stroke-width="1.103"/>
        <path id="Path_98" data-name="Path 98" d="M234.332,319.719s6.088-20,12.094-30.324" transform="translate(59.413 73.373)" fill="none" stroke="#370238" stroke-linecap="round" stroke-linejoin="round" stroke-width="1.103"/>
        <path id="Path_99" data-name="Path 99" d="M266.069,243.156s-33.609,12.611-36.9,16.282-15.82,74.206-16.148,82.279c-.3,7.215,25.883,23.427,38.815,30.26" transform="translate(54.008 61.65)" fill="none" stroke="#370238" stroke-linecap="round" stroke-linejoin="round" stroke-width="1.103"/>
        <path id="Path_100" data-name="Path 100" d="M361.8,241.977h-38.3a8.187,8.187,0,0,1-8.188-8.188V211.322a8.187,8.187,0,0,1,8.188-8.187h38.3a8.188,8.188,0,0,1,8.188,8.187v22.467a8.188,8.188,0,0,1-8.188,8.188" transform="translate(79.946 51.503)" fill="#fff"/>
        <path id="Rectangle_41" data-name="Rectangle 41" d="M6.532,0H48.141a6.532,6.532,0,0,1,6.532,6.532V32.311a6.531,6.531,0,0,1-6.531,6.531H6.532A6.532,6.532,0,0,1,0,32.31V6.532A6.532,6.532,0,0,1,6.532,0Z" transform="translate(395.265 254.638)" fill="none" stroke="#370238" stroke-linecap="round" stroke-linejoin="round" stroke-width="1.103"/>
        <path id="Path_101" data-name="Path 101" d="M331.517,212.454,321,219.054l9.756,8.653" transform="translate(81.387 53.866)" fill="none" stroke="#370238" stroke-linecap="round" stroke-linejoin="round" stroke-width="1.103"/>
        <path id="Path_102" data-name="Path 102" d="M344.968,228.2l9.448-8.051L343.51,213" transform="translate(87.094 54.003)" fill="none" stroke="#370238" stroke-linecap="round" stroke-linejoin="round" stroke-width="1.103"/>
        <line id="Line_1" data-name="Line 1" y1="24.335" x2="7.761" transform="translate(418.016 262.82)" fill="none" stroke="#370238" stroke-linecap="round" stroke-linejoin="round" stroke-width="1.103"/>
        <path id="Path_103" data-name="Path 103" d="M276.281,262.612a2.211,2.211,0,1,1-2.21-2.21,2.209,2.209,0,0,1,2.21,2.21" transform="translate(68.928 66.022)" fill="#370238"/>
        <path id="Path_104" data-name="Path 104" d="M322.244,357.109H245.756a1.793,1.793,0,0,1,0-3.586h76.489a1.793,1.793,0,0,1,0,3.586" transform="translate(61.854 89.632)" fill="#370238"/>
        <path id="Path_105" data-name="Path 105" d="M326.6,362.629l10.25-48.135a5.122,5.122,0,0,0-5.01-6.189H242.472a5.123,5.123,0,0,0-5.025,6.115l9.19,46.533a5.12,5.12,0,0,0,4.908,4.128l69.927,1.6a5.121,5.121,0,0,0,5.127-4.054" transform="translate(60.177 78.168)" fill="#fff"/>
        <path id="Path_106" data-name="Path 106" d="M326.6,362.629l10.25-48.135a5.122,5.122,0,0,0-5.01-6.189H242.472a5.123,5.123,0,0,0-5.025,6.115l9.19,46.533a5.12,5.12,0,0,0,4.908,4.128l69.927,1.6A5.121,5.121,0,0,0,326.6,362.629Z" transform="translate(60.177 78.168)" fill="none" stroke="#370238" stroke-linecap="round" stroke-linejoin="round" stroke-width="1.103"/>
        <path id="Path_107" data-name="Path 107" d="M285.416,331.878a7.135,7.135,0,1,1-7.135-7.135,7.135,7.135,0,0,1,7.135,7.135" transform="translate(68.747 82.336)" fill="#370238"/>
        <line id="Line_2" data-name="Line 2" x2="10.617" transform="translate(368.185 391.042)" fill="none" stroke="#370238" stroke-linecap="round" stroke-linejoin="round" stroke-width="1.103"/>
        <line id="Line_3" data-name="Line 3" x2="40.304" transform="translate(317.481 391.042)" fill="none" stroke="#370238" stroke-linecap="round" stroke-linejoin="round" stroke-width="1.103"/>
        <path id="Path_108" data-name="Path 108" d="M334.982,405.449l-8.149,21.383S306.061,421.6,279.44,416.14c-27.834-5.7-56.9-13.088-71.983-39.543-1.839-3.225-3.062-7.036-2.2-10.648,2.176-9.138,14.063-11.618,21.9-12.533a145.389,145.389,0,0,1,14.829-.834c2.523-.035,10.846-1.358,12.86.124a58.858,58.858,0,0,0,9.672,5.731c4.45,1.889,69.4-1.7,69.4-1.7a23.184,23.184,0,0,0,2.043-7.8c10.21-5.19,33.854-9.586,43.844-7.643,15.711,3.054,24.874,12.218,23.129,21.819s-36.415,35.347-67.956,42.33" transform="translate(51.969 86.414)" fill="#370238"/>
        <path id="Path_109" data-name="Path 109" d="M326.316,399.952s-19.758-5.237-35.905-16.147-28.761-23.564-51.255-20.947" transform="translate(60.636 91.911)" fill="none" stroke="#fff" stroke-linecap="round" stroke-linejoin="round" stroke-width="1.103"/>
        <path id="Path_110" data-name="Path 110" d="M277.082,384.335c10.2-2.935,17.684-9.531,25.867-15.866,8.669-6.711,17.834-13.211,27.694-18.2" transform="translate(70.252 88.808)" fill="none" stroke="#fff" stroke-linecap="round" stroke-linejoin="round" stroke-width="1.103"/>
        <line id="Line_4" data-name="Line 4" x2="2.992" transform="translate(343.747 262.82)" fill="none" stroke="#370238" stroke-linecap="round" stroke-linejoin="round" stroke-width="1.103"/>
      </g>
    </g>
  </g>
</svg>
